# xmcd
#
# Track frame offsets:
#	150
#	17628
#	35765
#	52976
#	69290
#	89479
#	105589
#	120869
#	132789
#	151443
#	167498
#	185498
#	209571
#	227528
#	246846
#
# Disc length: 3545 seconds
#
# Revision: 0
# Processed by: cddbd v1.5.2PL0 Copyright (c) Steve Scherf et al.
# Submitted via: EZCDAudioConverter 3.1.0.1
#
DISCID=be0dd70f
DTITLE=Josh Newcome - Indian Rodeo
DYEAR=2011
DGENRE=country
TTITLE0=Finding Rainbows
TTITLE1=If I could go back
TTITLE2=Dancin a slow dance
TTITLE3=Thats what happens
TTITLE4=Blame the outlaws
TTITLE5=Long way around goodbye
TTITLE6=I miss country
TTITLE7=Blame it on my girl
TTITLE8=No
TTITLE9=Southern Man
TTITLE10=Back to hell
TTITLE11=My block
TTITLE12=Georgia girl
TTITLE13=Grand ole opry
TTITLE14=Radio
EXTD=
EXTT0=
EXTT1=
EXTT2=
EXTT3=
EXTT4=
EXTT5=
EXTT6=
EXTT7=
EXTT8=
EXTT9=
EXTT10=
EXTT11=
EXTT12=
EXTT13=
EXTT14=
PLAYORDER=
